<?xml version="1.0" encoding="utf-8"?>
<!-- Generator: Adobe Illustrator 22.1.0, SVG Export Plug-In . SVG Version: 6.00 Build 0)  -->
<svg version="1.1" id="Livello_1" xmlns="http://www.w3.org/2000/svg" xmlns:xlink="http://www.w3.org/1999/xlink" x="0px" y="0px"
	 viewBox="0 0 144 72" style="enable-background:new 0 0 144 72;" xml:space="preserve">
<style type="text/css">
	.st0{fill:#109193;}
	.st1{fill:#62AFAD;}
	.st2{fill:#ED9F31;}
	.st3{fill:#EAB575;}
	.st4{fill:#BE4B88;}
	.st5{fill:#BC719C;}
</style>
<g>
	<g id="XMLID_3_">
		<g>
			<polygon class="st0" points="144,45 144,54 108,72 108,54 108,18 108,0 144,18 144,27 132,36 			"/>
			<polygon class="st1" points="108,54 108,72 90,63 			"/>
			<polygon class="st1" points="108,0 108,18 90,9 			"/>
			<polygon class="st2" points="108,18 108,54 90,63 72,72 72,54 72,18 72,0 90,9 			"/>
			<polygon class="st3" points="72,54 72,72 54,63 			"/>
			<polygon class="st3" points="72,0 72,18 54,9 			"/>
			<polygon class="st4" points="72,18 72,54 54,63 36,72 36,0 54,9 			"/>
			<polygon class="st5" points="36,0 36,72 0,54 0,18 			"/>
		</g>
		<g>
		</g>
	</g>
</g>
<g>
</g>
<g>
</g>
<g>
</g>
<g>
</g>
<g>
</g>
<g>
</g>
<g>
</g>
<g>
</g>
<g>
</g>
<g>
</g>
<g>
</g>
<g>
</g>
<g>
</g>
<g>
</g>
<g>
</g>
</svg>
